<?xml version="1.0" standalone="no"?>
<!DOCTYPE svg PUBLIC "-//W3C//DTD SVG 20010904//EN"
 "http://www.w3.org/TR/2001/REC-SVG-20010904/DTD/svg10.dtd">
<svg version="1.0" xmlns="http://www.w3.org/2000/svg"
 width="900.000000pt" height="900.000000pt" viewBox="0 0 900.000000 900.000000"
 preserveAspectRatio="xMidYMid meet">
<metadata>
Created by potrace 1.14, written by Peter Selinger 2001-2017
</metadata>
<g transform="translate(0.000000,900.000000) scale(0.100000,-0.100000)"
fill="#000000" stroke="none">
<path d="M6788 8957 c-62 -99 -75 -256 -29 -360 63 -145 280 -267 473 -267
170 0 355 114 428 264 57 116 64 265 17 358 l-22 43 -145 2 -145 2 91 -29
c109 -36 153 -63 176 -110 40 -78 6 -175 -102 -293 -80 -87 -140 -118 -244
-124 -136 -9 -244 39 -358 159 -61 63 -73 94 -71 179 1 43 35 129 51 129 4 1
29 21 55 45 l49 45 -99 0 -98 0 -27 -43z"/>
<path d="M8166 8957 c-56 -94 -78 -212 -56 -291 18 -66 61 -111 143 -151 146
-70 326 -89 415 -43 87 44 113 138 64 236 -11 20 -22 64 -25 97 -8 74 -31 145
-58 174 -19 20 -28 21 -239 21 l-219 0 -25 -43z m367 -10 c68 -52 121 -218 97
-307 -28 -105 -157 -130 -300 -58 -56 28 -68 40 -89 82 -49 98 -36 192 36 257
60 55 74 61 149 57 59 -3 77 -8 107 -31z"/>
<path d="M2685 8580 c-11 -4 -66 -10 -123 -13 -82 -5 -126 -14 -220 -46 -134
-44 -347 -136 -377 -161 -11 -9 -51 -34 -90 -55 -83 -45 -148 -89 -270 -180
-114 -85 -247 -167 -350 -217 -73 -35 -93 -39 -223 -52 -111 -12 -152 -20
-185 -38 -80 -44 -110 -158 -60 -227 92 -124 317 -126 610 -5 121 49 223 109
393 229 344 244 508 331 710 380 100 24 129 27 220 22 113 -5 225 -30 330 -73
85 -34 160 -73 178 -90 23 -23 105 -61 124 -57 9 2 19 -1 23 -6 3 -6 13 -11
22 -11 9 0 24 -6 32 -13 9 -8 45 -24 81 -37 60 -21 100 -45 89 -53 -2 -2 -49
-33 -105 -70 -56 -36 -135 -98 -178 -138 -94 -88 -212 -238 -220 -279 -1 -3
-9 -22 -19 -43 -10 -20 -15 -42 -12 -47 8 -13 -31 -80 -87 -151 -48 -60 -68
-94 -68 -115 0 -8 -7 -14 -15 -14 -9 0 -15 9 -15 24 0 47 -17 35 -46 -31 -15
-37 -46 -86 -70 -111 l-42 -44 -69 7 c-158 15 -213 11 -301 -24 -167 -66 -674
-437 -1127 -826 -454 -389 -668 -699 -700 -1012 -18 -184 77 -289 345 -383 92
-32 107 -35 97 -19 -6 10 -8 21 -5 25 13 12 191 9 406 -9 117 -9 217 -19 222
-22 5 -3 55 -6 111 -6 91 0 101 -1 96 -17 -3 -9 -24 -69 -47 -132 -23 -63 -55
-171 -71 -239 -17 -69 -39 -144 -50 -167 -10 -24 -19 -52 -19 -63 0 -11 -5
-23 -10 -26 -18 -11 -22 23 -10 82 6 32 13 74 15 93 2 19 4 40 6 45 1 6 -2 21
-8 34 -9 22 -10 23 -15 5 -3 -10 -31 -107 -61 -214 -122 -423 -247 -907 -247
-954 0 -24 -8 -38 -31 -55 l-30 -22 -36 28 c-66 52 -73 55 -137 60 -158 13
-322 -89 -453 -282 -107 -159 -364 -656 -428 -830 -94 -254 -135 -553 -126
-925 3 -126 2 -135 -18 -151 l-21 -17 25 -19 c19 -14 32 -44 58 -132 18 -63
37 -116 42 -118 6 -2 42 50 80 114 123 208 213 313 332 387 24 14 51 26 62 26
23 0 91 58 91 77 0 8 19 22 43 33 23 10 56 28 72 39 19 13 35 17 44 12 22 -14
30 -96 24 -248 -5 -111 -9 -143 -21 -148 -10 -4 -12 -14 -8 -39 5 -25 1 -39
-14 -59 -11 -14 -29 -46 -40 -70 -11 -24 -27 -50 -35 -57 -8 -7 -15 -19 -15
-27 0 -8 -14 -28 -30 -45 -17 -17 -39 -47 -50 -67 -28 -54 -93 -144 -108 -149
-6 -2 -12 3 -12 12 0 9 -4 16 -10 16 -5 0 -10 -5 -10 -11 0 -6 -6 -9 -14 -6
-9 4 -20 -9 -32 -36 -10 -23 -40 -75 -66 -116 -37 -57 -88 -177 -88 -207 0 -2
214 -4 477 -4 l476 0 141 41 c511 147 740 253 931 431 94 88 151 174 230 346
66 147 95 197 158 277 48 60 72 113 88 194 6 34 16 61 20 61 22 0 5 68 -36
146 -46 86 -46 86 -43 178 l3 91 75 7 c41 5 99 15 129 24 37 10 57 12 64 5 7
-7 4 -12 -9 -17 -32 -10 -64 -27 -64 -34 0 -7 396 91 459 114 24 9 52 16 61
16 10 0 30 15 44 33 55 68 92 97 142 112 27 8 66 26 85 40 19 13 50 32 69 41
19 9 49 23 65 31 224 115 375 187 395 189 109 13 197 53 258 116 20 21 40 38
44 38 3 0 39 19 78 41 40 23 93 46 118 51 25 4 53 15 62 23 9 8 26 15 37 15
14 0 29 13 43 35 12 19 26 35 31 35 14 0 34 -38 75 -138 34 -84 37 -97 27
-133 -10 -37 -8 -42 19 -71 41 -44 54 -73 83 -183 14 -54 37 -120 52 -147 34
-63 100 -121 161 -143 101 -37 381 -29 607 16 320 65 555 299 770 769 274 600
441 1306 382 1618 -20 106 -11 169 43 280 22 46 40 95 40 108 0 14 7 27 15 30
8 4 12 10 9 15 -3 5 13 39 34 76 60 102 184 356 227 463 21 52 42 100 46 105
4 6 10 30 13 55 8 49 19 84 46 145 10 22 23 52 29 68 8 21 17 27 42 27 57 0
160 -72 220 -154 23 -30 29 -50 29 -88 0 -27 9 -70 20 -96 38 -90 51 -174 60
-392 5 -124 16 -248 25 -294 28 -136 85 -264 145 -331 15 -16 35 -44 44 -62 8
-17 38 -54 65 -82 27 -28 52 -59 56 -70 6 -21 116 -70 215 -96 35 -9 100 -16
144 -16 70 0 86 4 125 29 56 34 91 91 91 151 0 38 -7 52 -52 107 -28 35 -58
64 -67 64 -39 0 -217 66 -255 95 -22 17 -58 60 -79 95 -67 116 -89 219 -103
485 -7 143 -9 163 -17 185 -3 8 -11 47 -18 85 -15 91 -67 266 -84 285 -7 8
-20 38 -29 66 -42 129 -140 245 -254 301 -62 31 -86 37 -158 41 -46 3 -86 8
-89 12 -2 4 -9 61 -15 126 -20 217 -28 242 -148 467 -38 71 -42 85 -42 150 0
77 18 163 75 358 52 180 47 304 -20 489 -15 41 -33 90 -39 108 -11 34 -86 124
-86 104 0 -6 4 -14 10 -17 20 -12 10 -35 -14 -35 -17 0 -34 12 -51 34 -51 67
-195 178 -264 204 -235 88 -287 101 -611 154 -116 18 -194 22 -555 28 -418 7
-704 22 -759 40 -16 6 -47 10 -70 10 -38 0 -116 16 -302 60 -45 11 -94 20
-109 20 -75 0 -575 -142 -713 -202 -90 -40 -94 -41 -135 -27 -23 7 -60 28 -82
45 -35 26 -40 35 -40 70 0 38 -24 73 -51 74 -6 0 -69 34 -140 76 -279 163
-485 243 -709 273 -44 6 -91 13 -105 15 -14 2 -34 1 -45 -4z m2306 -604 c59
-13 160 -45 225 -71 103 -41 132 -47 214 -52 52 -3 136 0 185 6 50 6 221 14
380 17 160 3 321 9 359 13 39 4 120 4 180 -1 91 -7 122 -14 171 -38 33 -16 96
-38 140 -50 108 -29 206 -82 274 -150 81 -81 111 -149 129 -292 15 -116 15
-117 -18 -380 -19 -144 -33 -283 -32 -307 1 -25 18 -83 38 -130 61 -148 82
-213 100 -316 22 -132 22 -333 -1 -440 -16 -77 -109 -338 -158 -447 -13 -29
-32 -73 -43 -98 -10 -25 -39 -85 -65 -135 -25 -50 -50 -112 -54 -140 -8 -57
-41 -152 -57 -161 -6 -4 -6 1 1 14 15 29 14 37 -5 22 -8 -8 -34 -51 -57 -98
-40 -81 -65 -109 -151 -175 -20 -15 -36 -35 -36 -43 0 -19 -282 -386 -340
-442 -25 -24 -103 -84 -175 -133 -71 -50 -139 -101 -150 -113 -11 -12 -55 -48
-98 -80 -43 -32 -86 -69 -96 -82 -10 -13 -23 -24 -28 -24 -4 0 -35 -34 -68
-75 -40 -50 -108 -114 -200 -188 -77 -61 -170 -140 -207 -174 -78 -71 -150
-109 -227 -120 -52 -8 -53 -9 -71 -54 -40 -107 -109 -160 -229 -178 -88 -14
-165 -52 -326 -160 -60 -41 -138 -94 -173 -117 -133 -89 -554 -285 -842 -392
-109 -40 -152 -51 -225 -57 -56 -4 -93 -11 -97 -19 -4 -7 -35 -25 -68 -40 -59
-27 -94 -33 -290 -56 -52 -6 -138 -16 -191 -22 -53 -6 -148 -9 -211 -6 -64 3
-137 2 -164 -3 -28 -4 -80 -3 -122 4 -67 10 -76 9 -129 -13 -54 -22 -62 -23
-145 -12 -121 15 -205 -10 -263 -80 -24 -28 -27 -39 -23 -83 6 -66 34 -106 96
-137 43 -21 61 -23 241 -26 209 -3 379 11 565 49 59 12 112 19 120 16 10 -4 8
-28 -15 -121 -16 -64 -36 -163 -44 -219 -15 -111 -32 -161 -94 -284 -21 -43
-60 -130 -87 -193 -58 -139 -111 -203 -204 -244 -69 -31 -875 -307 -905 -310
-11 -1 -38 -7 -60 -13 -148 -44 -408 -113 -412 -109 -3 2 8 24 24 48 16 24 43
72 60 108 16 36 44 82 62 102 25 29 30 41 25 65 -14 69 14 173 86 318 84 171
110 253 110 349 0 132 -73 228 -246 322 l-85 46 -62 -40 c-75 -48 -319 -173
-325 -167 -9 9 21 203 48 310 48 191 165 461 271 625 22 34 66 114 99 178 33
65 67 126 77 138 35 41 90 74 194 116 78 33 105 48 107 63 8 54 15 67 45 85
43 27 57 25 57 -6 0 -55 32 -164 61 -203 26 -37 32 -40 61 -34 49 9 106 40
119 65 7 13 16 59 20 103 28 295 33 326 66 440 20 66 41 138 47 160 7 22 18
54 26 70 44 98 60 139 75 192 9 32 29 85 45 118 15 33 36 91 45 128 10 38 24
71 31 74 8 3 14 13 14 23 0 11 4 22 10 25 6 4 8 -7 5 -27 -4 -27 -3 -28 3 -8
5 15 15 25 27 25 19 0 20 8 20 120 0 115 2 126 43 248 57 170 70 230 81 377
15 192 27 215 177 350 45 41 52 54 73 127 16 55 32 89 49 105 21 19 24 20 19
5 -5 -13 -3 -17 5 -15 7 3 14 20 16 39 2 30 1 32 -11 17 -8 -10 -17 -18 -21
-18 -10 0 3 41 18 60 7 8 25 49 40 90 48 129 110 259 127 263 9 3 24 27 33 55
9 27 26 58 36 67 14 13 17 22 10 30 -10 12 2 45 55 160 7 17 17 41 21 55 11
42 125 261 176 339 26 40 48 78 48 83 0 6 22 47 49 92 36 60 56 108 75 182 35
137 59 188 120 248 29 28 63 74 76 101 13 28 70 105 128 173 89 105 115 129
185 170 45 27 129 67 187 90 58 23 137 63 175 88 123 80 226 124 525 226 l175
59 110 -5 c63 -3 156 -16 216 -30z m-2486 -1489 c32 -24 15 -88 -69 -256 -42
-85 -76 -167 -76 -181 0 -36 -29 -117 -78 -220 -50 -106 -82 -180 -82 -192 0
-5 -31 -82 -69 -171 -38 -89 -90 -218 -116 -287 -70 -183 -108 -256 -147 -276
-60 -31 -507 -24 -736 11 -140 21 -223 43 -245 63 -28 25 -17 78 42 196 98
196 249 365 558 623 264 220 522 417 796 607 80 56 144 87 198 95 3 1 13 -5
24 -12z m4308 -2445 c-3 -75 -12 -155 -19 -177 -8 -22 -14 -54 -14 -71 0 -17
-7 -37 -15 -44 -8 -7 -15 -22 -15 -34 0 -74 -151 -552 -244 -771 -142 -338
-217 -465 -339 -582 -130 -124 -234 -162 -465 -170 -177 -7 -176 -7 -213 85
-31 78 -93 197 -134 257 -19 27 -35 57 -35 66 0 18 -59 76 -108 105 -18 10
-32 22 -32 27 0 5 15 0 33 -10 62 -37 74 -37 40 -1 -46 47 -43 70 15 107 30
19 48 38 49 51 2 18 -1 19 -13 9 -8 -6 -17 -9 -20 -6 -3 3 16 20 43 38 29 19
41 24 31 12 -21 -23 -24 -40 -4 -24 8 7 24 14 36 16 12 2 51 26 88 53 37 27
85 61 107 76 22 14 40 31 40 36 0 15 242 246 274 262 15 7 91 69 169 138 78
69 170 142 205 163 73 44 247 213 247 240 0 34 22 61 124 159 55 53 112 108
126 122 43 42 50 22 43 -132z"/>
<path d="M6618 7843 c7 -3 16 -2 19 1 4 3 -2 6 -13 5 -11 0 -14 -3 -6 -6z"/>
<path d="M4550 7541 c-89 -27 -130 -76 -130 -155 0 -45 4 -53 41 -88 51 -48
131 -73 292 -93 306 -38 491 -6 550 94 56 94 -14 177 -183 215 -142 32 -498
49 -570 27z"/>
<path d="M5155 6570 c-38 -4 -178 -8 -310 -9 -244 -1 -336 -10 -404 -37 -32
-12 -41 -24 -61 -72 -13 -31 -39 -79 -58 -106 -20 -27 -56 -87 -81 -135 -38
-69 -58 -95 -111 -138 -74 -59 -98 -102 -108 -196 -5 -44 -11 -62 -22 -64
-114 -13 -289 -51 -314 -68 -46 -31 -91 -115 -116 -215 -35 -142 -65 -195
-177 -308 -54 -55 -105 -107 -113 -116 -48 -51 -116 -100 -174 -126 -36 -17
-76 -40 -87 -51 -12 -12 -53 -37 -93 -55 -118 -57 -133 -70 -172 -151 -23 -48
-33 -95 -49 -225 -6 -45 -8 -47 -86 -99 -152 -100 -261 -237 -275 -345 -9 -73
4 -182 25 -220 10 -17 28 -59 40 -95 21 -60 23 -80 22 -310 -2 -255 1 -280 42
-325 10 -12 26 -37 36 -55 21 -41 148 -121 231 -147 83 -26 290 -20 443 12
135 28 206 63 253 123 40 52 78 176 104 338 12 72 30 157 41 190 34 109 39
156 23 226 -29 126 -75 220 -175 356 -21 28 -39 58 -39 64 0 7 11 27 25 44 13
18 21 35 18 39 -3 3 -1 12 5 19 7 8 10 16 7 18 -9 10 121 137 175 171 30 20
98 76 152 125 53 50 124 114 158 144 34 30 71 71 82 93 20 40 78 106 93 106
23 0 178 102 240 158 59 54 70 60 73 43 3 -19 -22 -73 -54 -118 -15 -21 -15
-24 13 -51 62 -62 272 -110 523 -119 216 -8 243 1 357 110 97 93 194 209 210
253 7 16 21 88 33 159 29 179 84 388 118 449 17 30 60 77 103 115 41 35 84 82
97 104 57 102 -2 295 -117 386 -127 101 -301 136 -546 111z m-419 -815 c18
-15 17 -17 -26 -55 -25 -22 -51 -40 -57 -40 -7 0 -30 -16 -52 -35 -21 -19 -44
-35 -51 -35 -12 0 -345 -237 -378 -269 -9 -9 -34 -24 -54 -35 -20 -10 -47 -29
-59 -42 -12 -13 -26 -24 -31 -24 -10 0 -257 -201 -347 -283 -278 -254 -485
-487 -629 -708 -55 -85 -108 -173 -118 -194 -50 -115 -144 -272 -169 -281 -20
-8 -64 25 -72 54 -5 21 -7 23 -12 9 -15 -43 -81 111 -81 191 0 35 9 45 98 119
21 18 62 43 90 56 71 33 161 113 183 162 10 22 22 84 28 138 6 54 17 107 24
118 17 28 55 49 184 104 62 25 138 63 170 84 72 46 150 131 182 197 13 27 29
56 36 64 7 8 18 33 25 55 17 56 58 124 95 160 18 16 44 53 58 81 48 94 106
129 231 137 105 7 169 34 305 127 48 33 92 60 98 60 5 0 41 17 79 37 117 62
209 80 250 48z"/>
<path d="M6592 6563 c-43 -21 -77 -66 -92 -123 -13 -48 -3 -192 26 -394 20
-137 57 -193 146 -217 54 -14 93 -3 139 38 68 62 82 166 59 442 -16 191 -72
271 -190 271 -30 0 -70 -8 -88 -17z"/>
<path d="M3499 4333 l-24 -28 28 24 c25 23 32 31 24 31 -2 0 -14 -12 -28 -27z"/>
<path d="M3459 4283 c-13 -16 -12 -17 4 -4 16 13 21 21 13 21 -2 0 -10 -8 -17
-17z"/>
<path d="M2783 2057 c-24 -5 -43 -14 -43 -19 0 -10 53 -2 115 17 l40 13 -35 0
c-19 0 -54 -5 -77 -11z"/>
<path d="M5635 3100 c-3 -5 -2 -10 4 -10 5 0 13 5 16 10 3 6 2 10 -4 10 -5 0
-13 -4 -16 -10z"/>
<path d="M2986 7215 c-14 -13 -26 -32 -26 -41 0 -12 6 -9 22 12 12 16 26 35
31 42 15 20 2 14 -27 -13z"/>
</g>
</svg>
